<?xml version="1.0" encoding="UTF-8" standalone="no"?>
<!-- Created with Inkscape (http://www.inkscape.org/) -->

<svg
   xmlns:dc="http://purl.org/dc/elements/1.1/"
   xmlns:cc="http://creativecommons.org/ns#"
   xmlns:rdf="http://www.w3.org/1999/02/22-rdf-syntax-ns#"
   xmlns:svg="http://www.w3.org/2000/svg"
   xmlns="http://www.w3.org/2000/svg"
   xmlns:sodipodi="http://sodipodi.sourceforge.net/DTD/sodipodi-0.dtd"
   xmlns:inkscape="http://www.inkscape.org/namespaces/inkscape"
   width="36"
   height="36"
   viewBox="0 0 36 36.000001"
   id="svg2"
   version="1.1"
   inkscape:version="0.91 r13725"
   sodipodi:docname="search_button.svg">
  <defs
     id="defs4" />
  <sodipodi:namedview
     id="base"
     pagecolor="#ffffff"
     bordercolor="#666666"
     borderopacity="1.0"
     inkscape:pageopacity="0.0"
     inkscape:pageshadow="2"
     inkscape:zoom="11.2"
     inkscape:cx="14.829717"
     inkscape:cy="10.541749"
     inkscape:document-units="px"
     inkscape:current-layer="layer1"
     showgrid="false"
     inkscape:showpageshadow="false"
     units="px"
     inkscape:snap-bbox="true"
     inkscape:snap-page="true"
     inkscape:snap-bbox-edge-midpoints="true"
     inkscape:object-paths="true"
     inkscape:bbox-paths="true"
     inkscape:bbox-nodes="true"
     inkscape:snap-others="false"
     inkscape:snap-smooth-nodes="true"
     inkscape:snap-nodes="true"
     inkscape:object-nodes="true"
     inkscape:window-width="1920"
     inkscape:window-height="1018"
     inkscape:window-x="-8"
     inkscape:window-y="-8"
     inkscape:window-maximized="1" />
  <metadata
     id="metadata7">
    <rdf:RDF>
      <cc:Work
         rdf:about="">
        <dc:format>image/svg+xml</dc:format>
        <dc:type
           rdf:resource="http://purl.org/dc/dcmitype/StillImage" />
        <dc:title></dc:title>
      </cc:Work>
    </rdf:RDF>
  </metadata>
  <g
     inkscape:label="Layer 1"
     inkscape:groupmode="layer"
     id="layer1"
     transform="translate(0,-1016.3622)">
    <path
       style="fill:#ffffff;fill-opacity:1;fill-rule:nonzero;stroke:none"
       d="m 18.315523,1037.9646 4.116964,4.117 a 1.0417198,1.0417198 0 0 0 1.4736,0 1.0417198,1.0417198 0 0 0 0,-1.475 l -4.116964,-4.117 -0.319027,0.3191 -0.809305,0.8093 -0.345268,0.3452 z"
       id="rect4172"
       inkscape:connector-curvature="0" />
    <path
       style="fill:#ffffff;fill-opacity:1;fill-rule:nonzero;stroke:none"
       d="M 15.53125 9.3144531 A 6.9249926 6.9249926 0 0 0 8.6054688 16.238281 A 6.9249926 6.9249926 0 0 0 15.53125 23.164062 A 6.9249926 6.9249926 0 0 0 22.457031 16.238281 A 6.9249926 6.9249926 0 0 0 15.53125 9.3144531 z M 15.53125 11.322266 A 4.9175105 4.9175105 0 0 1 20.449219 16.238281 A 4.9175105 4.9175105 0 0 1 15.53125 21.15625 A 4.9175105 4.9175105 0 0 1 10.613281 16.238281 A 4.9175105 4.9175105 0 0 1 15.53125 11.322266 z "
       transform="translate(0,1016.3622)"
       id="path4153" />
  </g>
</svg>
